<?xml version="1.0" standalone="no"?>
<!DOCTYPE svg PUBLIC "-//W3C//DTD SVG 1.1//EN" "http://www.w3.org/Graphics/SVG/1.1/DTD/svg11.dtd" >
<svg xmlns="http://www.w3.org/2000/svg" xmlns:xlink="http://www.w3.org/1999/xlink" version="1.1">
<metadata></metadata>
<defs>
<font id="arcaderegular" horiz-adv-x="1064" >
<font-face units-per-em="2048" ascent="1638" descent="-410" />
<missing-glyph horiz-adv-x="500" />
<glyph horiz-adv-x="0" />
<glyph unicode="&#xd;" />
<glyph unicode=" " />
<glyph unicode="!" d="M0 444v115h115v-115h-115zM135 444v115h115v-115h-115zM135 715v114h115v-114h-115zM270 715v114h115v-114h-115zM270 852v115h115v-115h-115zM406 852v115h114v-115h-114zM406 987v115h114v-115h-114zM543 852v115h114v-115h-114zM543 987v115h114v-115h-114zM543 1122 v115h114v-115h-114zM678 987v115h115v-115h-115zM678 1122v115h115v-115h-115zM678 1257v115h115v-115h-115zM813 987v115h115v-115h-115zM813 1122v115h115v-115h-115zM813 1257v115h115v-115h-115z" />
<glyph unicode="&#x22;" d="M0 1122v115h115v-115h-115zM0 1257v115h115v-115h-115zM135 987v115h115v-115h-115zM135 1122v115h115v-115h-115zM135 1257v115h115v-115h-115zM406 1122v115h114v-115h-114zM406 1257v115h114v-115h-114zM543 987v115h114v-115h-114zM543 1122v115h114v-115h-114z M543 1257v115h114v-115h-114z" />
<glyph unicode="#" d="M0 715v114h115v-114h-115zM0 987v115h115v-115h-115zM135 444v115h115v-115h-115zM135 580v114h115v-114h-115zM135 715v114h115v-114h-115zM135 852v115h115v-115h-115zM135 987v115h115v-115h-115zM135 1122v115h115v-115h-115zM135 1257v115h115v-115h-115zM270 444 v115h115v-115h-115zM270 580v114h115v-114h-115zM270 715v114h115v-114h-115zM270 852v115h115v-115h-115zM270 987v115h115v-115h-115zM270 1122v115h115v-115h-115zM270 1257v115h115v-115h-115zM406 715v114h114v-114h-114zM406 987v115h114v-115h-114zM543 444v115h114 v-115h-114zM543 580v114h114v-114h-114zM543 715v114h114v-114h-114zM543 852v115h114v-115h-114zM543 987v115h114v-115h-114zM543 1122v115h114v-115h-114zM543 1257v115h114v-115h-114zM678 444v115h115v-115h-115zM678 580v114h115v-114h-115zM678 715v114h115v-114 h-115zM678 852v115h115v-115h-115zM678 987v115h115v-115h-115zM678 1122v115h115v-115h-115zM678 1257v115h115v-115h-115zM813 715v114h115v-114h-115zM813 987v115h115v-115h-115z" />
<glyph unicode="$" d="M0 580v114h115v-114h-115zM0 852v115h115v-115h-115zM0 987v115h115v-115h-115zM135 580v114h115v-114h-115zM135 852v115h115v-115h-115zM135 1122v115h115v-115h-115zM270 444v115h115v-115h-115zM270 580v114h115v-114h-115zM270 852v115h115v-115h-115zM270 1122v115 h115v-115h-115zM270 1257v115h115v-115h-115zM406 715v114h114v-114h-114zM406 1122v115h114v-115h-114z" />
<glyph unicode="%" d="M0 580v114h115v-114h-115zM0 987v115h115v-115h-115zM0 1122v115h115v-115h-115zM135 580v114h115v-114h-115zM135 715v114h115v-114h-115zM135 987v115h115v-115h-115zM135 1122v115h115v-115h-115zM270 715v114h115v-114h-115zM270 852v115h115v-115h-115zM406 852v115 h114v-115h-114zM406 987v115h114v-115h-114zM543 580v114h114v-114h-114zM543 715v114h114v-114h-114zM543 987v115h114v-115h-114zM543 1122v115h114v-115h-114zM678 580v114h115v-114h-115zM678 715v114h115v-114h-115zM678 1122v115h115v-115h-115z" />
<glyph unicode="&#x26;" horiz-adv-x="860" d="M0 580v114h115v-114h-115zM0 715v114h115v-114h-115zM0 987v115h115v-115h-115zM0 1122v115h115v-115h-115zM135 444v115h115v-115h-115zM135 852v115h115v-115h-115zM135 1257v115h115v-115h-115zM270 444v115h115v-115h-115zM270 715v114h115v-114h-115zM270 987v115 h115v-115h-115zM270 1257v115h115v-115h-115zM406 580v114h114v-114h-114zM406 1122v115h114v-115h-114zM543 444v115h114v-115h-114zM543 715v114h114v-114h-114z" />
<glyph unicode="'" horiz-adv-x="710" d="M0 1122v115h115v-115h-115zM0 1257v115h115v-115h-115zM135 987v115h115v-115h-115zM135 1122v115h115v-115h-115zM135 1257v115h115v-115h-115z" />
<glyph unicode="(" d="M0 715v114h115v-114h-115zM0 852v115h115v-115h-115zM0 987v115h115v-115h-115zM135 580v114h115v-114h-115zM135 715v114h115v-114h-115zM135 852v115h115v-115h-115zM135 987v115h115v-115h-115zM135 1122v115h115v-115h-115zM270 444v115h115v-115h-115zM270 580v114 h115v-114h-115zM270 1122v115h115v-115h-115zM270 1257v115h115v-115h-115zM406 444v115h114v-115h-114zM406 1257v115h114v-115h-114z" />
<glyph unicode=")" d="M0 444v115h115v-115h-115zM0 1257v115h115v-115h-115zM135 444v115h115v-115h-115zM135 580v114h115v-114h-115zM135 1122v115h115v-115h-115zM135 1257v115h115v-115h-115zM270 580v114h115v-114h-115zM270 715v114h115v-114h-115zM270 852v115h115v-115h-115zM270 987 v115h115v-115h-115zM270 1122v115h115v-115h-115zM406 715v114h114v-114h-114zM406 852v115h114v-115h-114zM406 987v115h114v-115h-114z" />
<glyph unicode="*" d="M135 715v114h115v-114h-115zM135 987v115h115v-115h-115zM270 852v115h115v-115h-115zM406 715v114h114v-114h-114zM406 987v115h114v-115h-114z" />
<glyph unicode="+" horiz-adv-x="925" d="M0 852v115h115v-115h-115zM135 852v115h115v-115h-115zM270 580v114h115v-114h-115zM270 715v114h115v-114h-115zM270 852v115h115v-115h-115zM270 987v115h115v-115h-115zM270 1122v115h115v-115h-115zM406 580v114h114v-114h-114zM406 715v114h114v-114h-114zM406 852 v115h114v-115h-114zM406 987v115h114v-115h-114zM406 1122v115h114v-115h-114zM543 852v115h114v-115h-114zM678 852v115h115v-115h-115z" />
<glyph unicode="," horiz-adv-x="659" d="M135 172v115h115v-115h-115zM270 172v115h115v-115h-115zM270 309v115h115v-115h-115zM270 444v115h115v-115h-115zM406 309v115h114v-115h-114zM406 444v115h114v-115h-114z" />
<glyph unicode="-" horiz-adv-x="813" d="M0 852v115h115v-115h-115zM135 852v115h115v-115h-115zM270 852v115h115v-115h-115zM406 852v115h114v-115h-114zM543 852v115h114v-115h-114z" />
<glyph unicode="." horiz-adv-x="659" d="M270 309v115h115v-115h-115zM270 444v115h115v-115h-115zM406 309v115h114v-115h-114zM406 444v115h114v-115h-114z" />
<glyph unicode="/" d="M0 444v115h115v-115h-115zM135 444v115h115v-115h-115zM135 580v114h115v-114h-115zM270 580v114h115v-114h-115zM270 715v114h115v-114h-115zM270 852v115h115v-115h-115zM406 715v114h114v-114h-114zM406 852v115h114v-115h-114zM406 987v115h114v-115h-114zM543 987 v115h114v-115h-114zM543 1122v115h114v-115h-114zM678 1122v115h115v-115h-115zM678 1257v115h115v-115h-115z" />
<glyph unicode="0" horiz-adv-x="929" d="M0 580v114h115v-114h-115zM0 715v114h115v-114h-115zM0 852v115h115v-115h-115zM0 987v115h115v-115h-115zM0 1122v115h115v-115h-115zM135 444v115h115v-115h-115zM135 580v114h115v-114h-115zM135 715v114h115v-114h-115zM135 852v115h115v-115h-115zM135 987v115h115 v-115h-115zM135 1122v115h115v-115h-115zM135 1257v115h115v-115h-115zM270 444v115h115v-115h-115zM270 1257v115h115v-115h-115zM406 444v115h114v-115h-114zM406 1257v115h114v-115h-114zM543 444v115h114v-115h-114zM543 580v114h114v-114h-114zM543 715v114h114v-114 h-114zM543 852v115h114v-115h-114zM543 987v115h114v-115h-114zM543 1122v115h114v-115h-114zM543 1257v115h114v-115h-114zM678 580v114h115v-114h-115zM678 715v114h115v-114h-115zM678 852v115h115v-115h-115zM678 987v115h115v-115h-115zM678 1122v115h115v-115h-115z " />
<glyph unicode="1" horiz-adv-x="925" d="M0 444v115h115v-115h-115zM135 444v115h115v-115h-115zM135 1122v115h115v-115h-115zM270 444v115h115v-115h-115zM270 580v114h115v-114h-115zM270 715v114h115v-114h-115zM270 852v115h115v-115h-115zM270 987v115h115v-115h-115zM270 1122v115h115v-115h-115z M270 1257v115h115v-115h-115zM406 444v115h114v-115h-114zM406 580v114h114v-114h-114zM406 715v114h114v-114h-114zM406 852v115h114v-115h-114zM406 987v115h114v-115h-114zM406 1122v115h114v-115h-114zM406 1257v115h114v-115h-114zM543 444v115h114v-115h-114zM678 444 v115h115v-115h-115z" />
<glyph unicode="2" d="M0 444v115h115v-115h-115zM0 580v114h115v-114h-115zM0 1122v115h115v-115h-115zM135 444v115h115v-115h-115zM135 580v114h115v-114h-115zM135 715v114h115v-114h-115zM135 1122v115h115v-115h-115zM135 1257v115h115v-115h-115zM270 444v115h115v-115h-115zM270 715 v114h115v-114h-115zM270 852v115h115v-115h-115zM270 1257v115h115v-115h-115zM406 444v115h114v-115h-114zM406 852v115h114v-115h-114zM406 1257v115h114v-115h-114zM543 444v115h114v-115h-114zM543 852v115h114v-115h-114zM543 987v115h114v-115h-114zM543 1257v115h114 v-115h-114zM678 444v115h115v-115h-115zM678 987v115h115v-115h-115zM678 1122v115h115v-115h-115zM678 1257v115h115v-115h-115zM813 444v115h115v-115h-115zM813 1122v115h115v-115h-115z" />
<glyph unicode="3" d="M0 580v114h115v-114h-115zM0 1122v115h115v-115h-115zM135 444v115h115v-115h-115zM135 580v114h115v-114h-115zM135 1122v115h115v-115h-115zM135 1257v115h115v-115h-115zM270 444v115h115v-115h-115zM270 1257v115h115v-115h-115zM406 444v115h114v-115h-114zM406 852 v115h114v-115h-114zM406 1257v115h114v-115h-114zM543 444v115h114v-115h-114zM543 852v115h114v-115h-114zM543 1257v115h114v-115h-114zM678 444v115h115v-115h-115zM678 580v114h115v-114h-115zM678 715v114h115v-114h-115zM678 852v115h115v-115h-115zM678 987v115h115 v-115h-115zM678 1122v115h115v-115h-115zM678 1257v115h115v-115h-115zM813 580v114h115v-114h-115zM813 715v114h115v-114h-115zM813 987v115h115v-115h-115zM813 1122v115h115v-115h-115z" />
<glyph unicode="4" d="M0 715v114h115v-114h-115zM0 852v115h115v-115h-115zM135 715v114h115v-114h-115zM135 852v115h115v-115h-115zM135 987v115h115v-115h-115zM270 715v114h115v-114h-115zM270 987v115h115v-115h-115zM270 1122v115h115v-115h-115zM406 715v114h114v-114h-114zM406 1122 v115h114v-115h-114zM406 1257v115h114v-115h-114zM543 444v115h114v-115h-114zM543 580v114h114v-114h-114zM543 715v114h114v-114h-114zM543 852v115h114v-115h-114zM543 987v115h114v-115h-114zM543 1122v115h114v-115h-114zM543 1257v115h114v-115h-114zM678 444v115h115 v-115h-115zM678 580v114h115v-114h-115zM678 715v114h115v-114h-115zM678 852v115h115v-115h-115zM678 987v115h115v-115h-115zM678 1122v115h115v-115h-115zM678 1257v115h115v-115h-115zM813 715v114h115v-114h-115z" />
<glyph unicode="5" d="M0 580v114h115v-114h-115zM0 987v115h115v-115h-115zM0 1122v115h115v-115h-115zM0 1257v115h115v-115h-115zM135 444v115h115v-115h-115zM135 580v114h115v-114h-115zM135 987v115h115v-115h-115zM135 1122v115h115v-115h-115zM135 1257v115h115v-115h-115zM270 444v115 h115v-115h-115zM270 987v115h115v-115h-115zM270 1257v115h115v-115h-115zM406 444v115h114v-115h-114zM406 987v115h114v-115h-114zM406 1257v115h114v-115h-114zM543 444v115h114v-115h-114zM543 987v115h114v-115h-114zM543 1257v115h114v-115h-114zM678 444v115h115 v-115h-115zM678 580v114h115v-114h-115zM678 715v114h115v-114h-115zM678 852v115h115v-115h-115zM678 987v115h115v-115h-115zM678 1257v115h115v-115h-115zM813 580v114h115v-114h-115zM813 715v114h115v-114h-115zM813 852v115h115v-115h-115z" />
<glyph unicode="6" d="M0 580v114h115v-114h-115zM0 715v114h115v-114h-115zM0 852v115h115v-115h-115zM0 987v115h115v-115h-115zM0 1122v115h115v-115h-115zM135 444v115h115v-115h-115zM135 580v114h115v-114h-115zM135 715v114h115v-114h-115zM135 852v115h115v-115h-115zM135 987v115h115 v-115h-115zM135 1122v115h115v-115h-115zM135 1257v115h115v-115h-115zM270 444v115h115v-115h-115zM270 852v115h115v-115h-115zM270 1257v115h115v-115h-115zM406 444v115h114v-115h-114zM406 852v115h114v-115h-114zM406 1257v115h114v-115h-114zM543 444v115h114v-115 h-114zM543 852v115h114v-115h-114zM543 1257v115h114v-115h-114zM678 444v115h115v-115h-115zM678 580v114h115v-114h-115zM678 715v114h115v-114h-115zM678 852v115h115v-115h-115zM678 1122v115h115v-115h-115zM678 1257v115h115v-115h-115zM813 580v114h115v-114h-115z M813 715v114h115v-114h-115zM813 1122v115h115v-115h-115z" />
<glyph unicode="7" d="M0 1257v115h115v-115h-115zM135 1257v115h115v-115h-115zM270 444v115h115v-115h-115zM270 580v114h115v-114h-115zM270 715v114h115v-114h-115zM270 852v115h115v-115h-115zM270 1257v115h115v-115h-115zM406 444v115h114v-115h-114zM406 580v114h114v-114h-114z M406 715v114h114v-114h-114zM406 852v115h114v-115h-114zM406 987v115h114v-115h-114zM406 1257v115h114v-115h-114zM543 987v115h114v-115h-114zM543 1122v115h114v-115h-114zM543 1257v115h114v-115h-114zM678 1122v115h115v-115h-115zM678 1257v115h115v-115h-115z M813 1257v115h115v-115h-115z" />
<glyph unicode="8" d="M0 580v114h115v-114h-115zM0 715v114h115v-114h-115zM0 987v115h115v-115h-115zM0 1122v115h115v-115h-115zM135 444v115h115v-115h-115zM135 580v114h115v-114h-115zM135 715v114h115v-114h-115zM135 852v115h115v-115h-115zM135 987v115h115v-115h-115zM135 1122v115 h115v-115h-115zM135 1257v115h115v-115h-115zM270 444v115h115v-115h-115zM270 852v115h115v-115h-115zM270 1257v115h115v-115h-115zM406 444v115h114v-115h-114zM406 852v115h114v-115h-114zM406 1257v115h114v-115h-114zM543 444v115h114v-115h-114zM543 852v115h114 v-115h-114zM543 1257v115h114v-115h-114zM678 444v115h115v-115h-115zM678 580v114h115v-114h-115zM678 715v114h115v-114h-115zM678 852v115h115v-115h-115zM678 987v115h115v-115h-115zM678 1122v115h115v-115h-115zM678 1257v115h115v-115h-115zM813 580v114h115v-114 h-115zM813 715v114h115v-114h-115zM813 987v115h115v-115h-115zM813 1122v115h115v-115h-115z" />
<glyph unicode="9" d="M0 987v115h115v-115h-115zM0 1122v115h115v-115h-115zM135 852v115h115v-115h-115zM135 987v115h115v-115h-115zM135 1122v115h115v-115h-115zM135 1257v115h115v-115h-115zM270 444v115h115v-115h-115zM270 852v115h115v-115h-115zM270 1257v115h115v-115h-115zM406 444 v115h114v-115h-114zM406 852v115h114v-115h-114zM406 1257v115h114v-115h-114zM543 444v115h114v-115h-114zM543 580v114h114v-114h-114zM543 852v115h114v-115h-114zM543 1257v115h114v-115h-114zM678 580v114h115v-114h-115zM678 715v114h115v-114h-115zM678 852v115h115 v-115h-115zM678 987v115h115v-115h-115zM678 1122v115h115v-115h-115zM678 1257v115h115v-115h-115zM813 715v114h115v-114h-115zM813 852v115h115v-115h-115zM813 987v115h115v-115h-115zM813 1122v115h115v-115h-115z" />
<glyph unicode=":" horiz-adv-x="407" d="M0 580v114h115v-114h-115zM0 715v114h115v-114h-115zM0 987v115h115v-115h-115zM0 1122v115h115v-115h-115zM135 580v114h115v-114h-115zM135 715v114h115v-114h-115zM135 987v115h115v-115h-115zM135 1122v115h115v-115h-115z" />
<glyph unicode=";" horiz-adv-x="405" d="M0 580v114h115v-114h-115zM0 715v114h115v-114h-115zM0 987v115h115v-115h-115zM0 1122v115h115v-115h-115zM135 444v115h115v-115h-115zM135 580v114h115v-114h-115zM135 715v114h115v-114h-115zM135 987v115h115v-115h-115zM135 1122v115h115v-115h-115z" />
<glyph unicode="&#x3c;" d="M0 852v115h115v-115h-115zM135 715v114h115v-114h-115zM135 852v115h115v-115h-115zM135 987v115h115v-115h-115zM270 580v114h115v-114h-115zM270 715v114h115v-114h-115zM270 987v115h115v-115h-115zM270 1122v115h115v-115h-115zM406 580v114h114v-114h-114zM406 1122 v115h114v-115h-114z" />
<glyph unicode="=" horiz-adv-x="817" d="M0 715v114h115v-114h-115zM0 987v115h115v-115h-115zM135 715v114h115v-114h-115zM135 987v115h115v-115h-115zM270 715v114h115v-114h-115zM270 987v115h115v-115h-115zM406 715v114h114v-114h-114zM406 987v115h114v-115h-114zM543 715v114h114v-114h-114zM543 987v115 h114v-115h-114z" />
<glyph unicode="&#x3e;" d="M0 580v114h115v-114h-115zM0 1122v115h115v-115h-115zM135 580v114h115v-114h-115zM135 715v114h115v-114h-115zM135 987v115h115v-115h-115zM135 1122v115h115v-115h-115zM270 715v114h115v-114h-115zM270 852v115h115v-115h-115zM270 987v115h115v-115h-115zM406 852 v115h114v-115h-114z" />
<glyph unicode="?" d="M0 1122v115h115v-115h-115zM135 1122v115h115v-115h-115zM135 1257v115h115v-115h-115zM270 444v115h115v-115h-115zM270 580v114h115v-114h-115zM270 852v115h115v-115h-115zM270 1257v115h115v-115h-115zM406 444v115h114v-115h-114zM406 580v114h114v-114h-114z M406 852v115h114v-115h-114zM406 987v115h114v-115h-114zM406 1257v115h114v-115h-114zM543 987v115h114v-115h-114zM543 1122v115h114v-115h-114zM543 1257v115h114v-115h-114zM678 1122v115h115v-115h-115z" />
<glyph unicode="@" d="M0 580v114h115v-114h-115zM0 715v114h115v-114h-115zM0 852v115h115v-115h-115zM0 987v115h115v-115h-115zM0 1122v115h115v-115h-115zM135 444v115h115v-115h-115zM135 1257v115h115v-115h-115zM270 444v115h115v-115h-115zM270 715v114h115v-114h-115zM270 852v115h115 v-115h-115zM270 987v115h115v-115h-115zM270 1257v115h115v-115h-115zM406 444v115h114v-115h-114zM406 715v114h114v-114h-114zM406 987v115h114v-115h-114zM406 1257v115h114v-115h-114zM543 444v115h114v-115h-114zM543 852v115h114v-115h-114zM543 987v115h114v-115 h-114zM543 1257v115h114v-115h-114zM678 444v115h115v-115h-115zM678 715v114h115v-114h-115zM678 1257v115h115v-115h-115zM813 444v115h115v-115h-115zM813 715v114h115v-114h-115zM813 852v115h115v-115h-115zM813 987v115h115v-115h-115zM813 1122v115h115v-115h-115z " />
<glyph unicode="A" d="M0 444v115h115v-115h-115zM0 580v114h115v-114h-115zM0 715v114h115v-114h-115zM0 852v115h115v-115h-115zM0 987v115h115v-115h-115zM135 444v115h115v-115h-115zM135 580v114h115v-114h-115zM135 715v114h115v-114h-115zM135 852v115h115v-115h-115zM135 987v115h115 v-115h-115zM135 1122v115h115v-115h-115zM270 715v114h115v-114h-115zM270 1122v115h115v-115h-115zM270 1257v115h115v-115h-115zM406 715v114h114v-114h-114zM406 1257v115h114v-115h-114zM543 715v114h114v-114h-114zM543 1122v115h114v-115h-114zM543 1257v115h114v-115 h-114zM678 444v115h115v-115h-115zM678 580v114h115v-114h-115zM678 715v114h115v-114h-115zM678 852v115h115v-115h-115zM678 987v115h115v-115h-115zM678 1122v115h115v-115h-115zM813 444v115h115v-115h-115zM813 580v114h115v-114h-115zM813 715v114h115v-114h-115z M813 852v115h115v-115h-115zM813 987v115h115v-115h-115z" />
<glyph unicode="B" d="M0 444v115h115v-115h-115zM0 580v114h115v-114h-115zM0 715v114h115v-114h-115zM0 852v115h115v-115h-115zM0 987v115h115v-115h-115zM0 1122v115h115v-115h-115zM0 1257v115h115v-115h-115zM135 444v115h115v-115h-115zM135 580v114h115v-114h-115zM135 715v114h115 v-114h-115zM135 852v115h115v-115h-115zM135 987v115h115v-115h-115zM135 1122v115h115v-115h-115zM135 1257v115h115v-115h-115zM270 444v115h115v-115h-115zM270 852v115h115v-115h-115zM270 1257v115h115v-115h-115zM406 444v115h114v-115h-114zM406 852v115h114v-115 h-114zM406 1257v115h114v-115h-114zM543 444v115h114v-115h-114zM543 852v115h114v-115h-114zM543 1257v115h114v-115h-114zM678 444v115h115v-115h-115zM678 580v114h115v-114h-115zM678 715v114h115v-114h-115zM678 852v115h115v-115h-115zM678 987v115h115v-115h-115z M678 1122v115h115v-115h-115zM678 1257v115h115v-115h-115zM813 580v114h115v-114h-115zM813 715v114h115v-114h-115zM813 987v115h115v-115h-115zM813 1122v115h115v-115h-115z" />
<glyph unicode="C" d="M0 580v114h115v-114h-115zM0 715v114h115v-114h-115zM0 852v115h115v-115h-115zM0 987v115h115v-115h-115zM0 1122v115h115v-115h-115zM135 444v115h115v-115h-115zM135 580v114h115v-114h-115zM135 715v114h115v-114h-115zM135 852v115h115v-115h-115zM135 987v115h115 v-115h-115zM135 1122v115h115v-115h-115zM135 1257v115h115v-115h-115zM270 444v115h115v-115h-115zM270 1257v115h115v-115h-115zM406 444v115h114v-115h-114zM406 1257v115h114v-115h-114zM543 444v115h114v-115h-114zM543 1257v115h114v-115h-114zM678 444v115h115v-115 h-115zM678 580v114h115v-114h-115zM678 1122v115h115v-115h-115zM678 1257v115h115v-115h-115zM813 580v114h115v-114h-115zM813 1122v115h115v-115h-115z" />
<glyph unicode="D" d="M0 444v115h115v-115h-115zM0 580v114h115v-114h-115zM0 715v114h115v-114h-115zM0 852v115h115v-115h-115zM0 987v115h115v-115h-115zM0 1122v115h115v-115h-115zM0 1257v115h115v-115h-115zM135 444v115h115v-115h-115zM135 580v114h115v-114h-115zM135 715v114h115 v-114h-115zM135 852v115h115v-115h-115zM135 987v115h115v-115h-115zM135 1122v115h115v-115h-115zM135 1257v115h115v-115h-115zM270 444v115h115v-115h-115zM270 1257v115h115v-115h-115zM406 444v115h114v-115h-114zM406 1257v115h114v-115h-114zM543 444v115h114v-115 h-114zM543 1257v115h114v-115h-114zM678 444v115h115v-115h-115zM678 580v114h115v-114h-115zM678 715v114h115v-114h-115zM678 852v115h115v-115h-115zM678 987v115h115v-115h-115zM678 1122v115h115v-115h-115zM678 1257v115h115v-115h-115zM813 580v114h115v-114h-115z M813 715v114h115v-114h-115zM813 852v115h115v-115h-115zM813 987v115h115v-115h-115zM813 1122v115h115v-115h-115z" />
<glyph unicode="E" d="M0 444v115h115v-115h-115zM0 580v114h115v-114h-115zM0 715v114h115v-114h-115zM0 852v115h115v-115h-115zM0 987v115h115v-115h-115zM0 1122v115h115v-115h-115zM0 1257v115h115v-115h-115zM135 444v115h115v-115h-115zM135 580v114h115v-114h-115zM135 715v114h115 v-114h-115zM135 852v115h115v-115h-115zM135 987v115h115v-115h-115zM135 1122v115h115v-115h-115zM135 1257v115h115v-115h-115zM270 444v115h115v-115h-115zM270 852v115h115v-115h-115zM270 1257v115h115v-115h-115zM406 444v115h114v-115h-114zM406 852v115h114v-115 h-114zM406 1257v115h114v-115h-114zM543 444v115h114v-115h-114zM543 852v115h114v-115h-114zM543 1257v115h114v-115h-114zM678 444v115h115v-115h-115zM678 852v115h115v-115h-115zM678 1257v115h115v-115h-115zM813 444v115h115v-115h-115zM813 1257v115h115v-115h-115z " />
<glyph unicode="F" d="M0 444v115h115v-115h-115zM0 580v114h115v-114h-115zM0 715v114h115v-114h-115zM0 852v115h115v-115h-115zM0 987v115h115v-115h-115zM0 1122v115h115v-115h-115zM0 1257v115h115v-115h-115zM135 444v115h115v-115h-115zM135 580v114h115v-114h-115zM135 715v114h115 v-114h-115zM135 852v115h115v-115h-115zM135 987v115h115v-115h-115zM135 1122v115h115v-115h-115zM135 1257v115h115v-115h-115zM270 852v115h115v-115h-115zM270 1257v115h115v-115h-115zM406 852v115h114v-115h-114zM406 1257v115h114v-115h-114zM543 852v115h114v-115 h-114zM543 1257v115h114v-115h-114zM678 852v115h115v-115h-115zM678 1257v115h115v-115h-115zM813 1257v115h115v-115h-115z" />
<glyph unicode="G" d="M0 580v114h115v-114h-115zM0 715v114h115v-114h-115zM0 852v115h115v-115h-115zM0 987v115h115v-115h-115zM0 1122v115h115v-115h-115zM135 444v115h115v-115h-115zM135 580v114h115v-114h-115zM135 715v114h115v-114h-115zM135 852v115h115v-115h-115zM135 987v115h115 v-115h-115zM135 1122v115h115v-115h-115zM135 1257v115h115v-115h-115zM270 444v115h115v-115h-115zM270 1257v115h115v-115h-115zM406 444v115h114v-115h-114zM406 1257v115h114v-115h-114zM543 444v115h114v-115h-114zM543 852v115h114v-115h-114zM543 1257v115h114v-115 h-114zM678 444v115h115v-115h-115zM678 580v114h115v-114h-115zM678 715v114h115v-114h-115zM678 852v115h115v-115h-115zM678 1122v115h115v-115h-115zM678 1257v115h115v-115h-115zM813 580v114h115v-114h-115zM813 715v114h115v-114h-115zM813 852v115h115v-115h-115z M813 1122v115h115v-115h-115z" />
<glyph unicode="H" d="M0 444v115h115v-115h-115zM0 580v114h115v-114h-115zM0 715v114h115v-114h-115zM0 852v115h115v-115h-115zM0 987v115h115v-115h-115zM0 1122v115h115v-115h-115zM0 1257v115h115v-115h-115zM135 444v115h115v-115h-115zM135 580v114h115v-114h-115zM135 715v114h115 v-114h-115zM135 852v115h115v-115h-115zM135 987v115h115v-115h-115zM135 1122v115h115v-115h-115zM135 1257v115h115v-115h-115zM270 852v115h115v-115h-115zM406 852v115h114v-115h-114zM543 852v115h114v-115h-114zM678 444v115h115v-115h-115zM678 580v114h115v-114 h-115zM678 715v114h115v-114h-115zM678 852v115h115v-115h-115zM678 987v115h115v-115h-115zM678 1122v115h115v-115h-115zM678 1257v115h115v-115h-115zM813 444v115h115v-115h-115zM813 580v114h115v-114h-115zM813 715v114h115v-114h-115zM813 852v115h115v-115h-115z M813 987v115h115v-115h-115zM813 1122v115h115v-115h-115zM813 1257v115h115v-115h-115z" />
<glyph unicode="I" d="M0 444v115h115v-115h-115zM0 1257v115h115v-115h-115zM135 444v115h115v-115h-115zM135 1257v115h115v-115h-115zM270 444v115h115v-115h-115zM270 580v114h115v-114h-115zM270 715v114h115v-114h-115zM270 852v115h115v-115h-115zM270 987v115h115v-115h-115zM270 1122 v115h115v-115h-115zM270 1257v115h115v-115h-115zM406 444v115h114v-115h-114zM406 580v114h114v-114h-114zM406 715v114h114v-114h-114zM406 852v115h114v-115h-114zM406 987v115h114v-115h-114zM406 1122v115h114v-115h-114zM406 1257v115h114v-115h-114zM543 444v115h114 v-115h-114zM543 1257v115h114v-115h-114zM678 444v115h115v-115h-115zM678 1257v115h115v-115h-115z" />
<glyph unicode="J" d="M0 580v114h115v-114h-115zM135 444v115h115v-115h-115zM135 580v114h115v-114h-115zM270 444v115h115v-115h-115zM270 1257v115h115v-115h-115zM406 444v115h114v-115h-114zM406 1257v115h114v-115h-114zM543 444v115h114v-115h-114zM543 580v114h114v-114h-114zM543 715 v114h114v-114h-114zM543 852v115h114v-115h-114zM543 987v115h114v-115h-114zM543 1122v115h114v-115h-114zM543 1257v115h114v-115h-114zM678 580v114h115v-114h-115zM678 715v114h115v-114h-115zM678 852v115h115v-115h-115zM678 987v115h115v-115h-115zM678 1122v115h115 v-115h-115zM678 1257v115h115v-115h-115zM813 1257v115h115v-115h-115z" />
<glyph unicode="K" d="M0 444v115h115v-115h-115zM0 580v114h115v-114h-115zM0 715v114h115v-114h-115zM0 852v115h115v-115h-115zM0 987v115h115v-115h-115zM0 1122v115h115v-115h-115zM0 1257v115h115v-115h-115zM135 444v115h115v-115h-115zM135 580v114h115v-114h-115zM135 715v114h115 v-114h-115zM135 852v115h115v-115h-115zM135 987v115h115v-115h-115zM135 1122v115h115v-115h-115zM135 1257v115h115v-115h-115zM270 715v114h115v-114h-115zM270 852v115h115v-115h-115zM406 580v114h114v-114h-114zM406 715v114h114v-114h-114zM406 852v115h114v-115 h-114zM406 987v115h114v-115h-114zM543 580v114h114v-114h-114zM543 715v114h114v-114h-114zM543 987v115h114v-115h-114zM543 1122v115h114v-115h-114zM678 444v115h115v-115h-115zM678 580v114h115v-114h-115zM678 1122v115h115v-115h-115zM678 1257v115h115v-115h-115z M813 444v115h115v-115h-115zM813 1257v115h115v-115h-115z" />
<glyph unicode="L" d="M0 444v115h115v-115h-115zM0 580v114h115v-114h-115zM0 715v114h115v-114h-115zM0 852v115h115v-115h-115zM0 987v115h115v-115h-115zM0 1122v115h115v-115h-115zM0 1257v115h115v-115h-115zM135 444v115h115v-115h-115zM135 580v114h115v-114h-115zM135 715v114h115 v-114h-115zM135 852v115h115v-115h-115zM135 987v115h115v-115h-115zM135 1122v115h115v-115h-115zM135 1257v115h115v-115h-115zM270 444v115h115v-115h-115zM406 444v115h114v-115h-114zM543 444v115h114v-115h-114zM678 444v115h115v-115h-115zM813 444v115h115v-115 h-115z" />
<glyph unicode="M" d="M0 444v115h115v-115h-115zM0 580v114h115v-114h-115zM0 715v114h115v-114h-115zM0 852v115h115v-115h-115zM0 987v115h115v-115h-115zM0 1122v115h115v-115h-115zM0 1257v115h115v-115h-115zM135 444v115h115v-115h-115zM135 580v114h115v-114h-115zM135 715v114h115 v-114h-115zM135 852v115h115v-115h-115zM135 987v115h115v-115h-115zM135 1122v115h115v-115h-115zM270 852v115h115v-115h-115zM270 987v115h115v-115h-115zM406 715v114h114v-114h-114zM406 852v115h114v-115h-114zM543 852v115h114v-115h-114zM543 987v115h114v-115h-114 zM678 444v115h115v-115h-115zM678 580v114h115v-114h-115zM678 715v114h115v-114h-115zM678 852v115h115v-115h-115zM678 987v115h115v-115h-115zM678 1122v115h115v-115h-115zM813 444v115h115v-115h-115zM813 580v114h115v-114h-115zM813 715v114h115v-114h-115zM813 852 v115h115v-115h-115zM813 987v115h115v-115h-115zM813 1122v115h115v-115h-115zM813 1257v115h115v-115h-115z" />
<glyph unicode="N" d="M0 444v115h115v-115h-115zM0 580v114h115v-114h-115zM0 715v114h115v-114h-115zM0 852v115h115v-115h-115zM0 987v115h115v-115h-115zM0 1122v115h115v-115h-115zM0 1257v115h115v-115h-115zM135 444v115h115v-115h-115zM135 580v114h115v-114h-115zM135 715v114h115 v-114h-115zM135 852v115h115v-115h-115zM135 987v115h115v-115h-115zM135 1122v115h115v-115h-115zM135 1257v115h115v-115h-115zM270 987v115h115v-115h-115zM270 1122v115h115v-115h-115zM406 852v115h114v-115h-114zM406 987v115h114v-115h-114zM543 715v114h114v-114 h-114zM543 852v115h114v-115h-114zM678 444v115h115v-115h-115zM678 580v114h115v-114h-115zM678 715v114h115v-114h-115zM678 852v115h115v-115h-115zM678 987v115h115v-115h-115zM678 1122v115h115v-115h-115zM678 1257v115h115v-115h-115zM813 444v115h115v-115h-115z M813 580v114h115v-114h-115zM813 715v114h115v-114h-115zM813 852v115h115v-115h-115zM813 987v115h115v-115h-115zM813 1122v115h115v-115h-115zM813 1257v115h115v-115h-115z" />
<glyph unicode="O" d="M0 580v114h115v-114h-115zM0 715v114h115v-114h-115zM0 852v115h115v-115h-115zM0 987v115h115v-115h-115zM0 1122v115h115v-115h-115zM135 444v115h115v-115h-115zM135 580v114h115v-114h-115zM135 715v114h115v-114h-115zM135 852v115h115v-115h-115zM135 987v115h115 v-115h-115zM135 1122v115h115v-115h-115zM135 1257v115h115v-115h-115zM270 444v115h115v-115h-115zM270 1257v115h115v-115h-115zM406 444v115h114v-115h-114zM406 1257v115h114v-115h-114zM543 444v115h114v-115h-114zM543 1257v115h114v-115h-114zM678 444v115h115v-115 h-115zM678 580v114h115v-114h-115zM678 715v114h115v-114h-115zM678 852v115h115v-115h-115zM678 987v115h115v-115h-115zM678 1122v115h115v-115h-115zM678 1257v115h115v-115h-115zM813 580v114h115v-114h-115zM813 715v114h115v-114h-115zM813 852v115h115v-115h-115z M813 987v115h115v-115h-115zM813 1122v115h115v-115h-115z" />
<glyph unicode="P" d="M0 444v115h115v-115h-115zM0 580v114h115v-114h-115zM0 715v114h115v-114h-115zM0 852v115h115v-115h-115zM0 987v115h115v-115h-115zM0 1122v115h115v-115h-115zM0 1257v115h115v-115h-115zM135 444v115h115v-115h-115zM135 580v114h115v-114h-115zM135 715v114h115 v-114h-115zM135 852v115h115v-115h-115zM135 987v115h115v-115h-115zM135 1122v115h115v-115h-115zM135 1257v115h115v-115h-115zM270 852v115h115v-115h-115zM270 1257v115h115v-115h-115zM406 852v115h114v-115h-114zM406 1257v115h114v-115h-114zM543 852v115h114v-115 h-114zM543 1257v115h114v-115h-114zM678 852v115h115v-115h-115zM678 987v115h115v-115h-115zM678 1122v115h115v-115h-115zM678 1257v115h115v-115h-115zM813 987v115h115v-115h-115zM813 1122v115h115v-115h-115z" />
<glyph unicode="Q" d="M0 580v114h115v-114h-115zM0 715v114h115v-114h-115zM0 852v115h115v-115h-115zM0 987v115h115v-115h-115zM0 1122v115h115v-115h-115zM135 444v115h115v-115h-115zM135 580v114h115v-114h-115zM135 715v114h115v-114h-115zM135 852v115h115v-115h-115zM135 987v115h115 v-115h-115zM135 1122v115h115v-115h-115zM135 1257v115h115v-115h-115zM270 444v115h115v-115h-115zM270 1257v115h115v-115h-115zM406 444v115h114v-115h-114zM406 715v114h114v-114h-114zM406 1257v115h114v-115h-114zM543 580v114h114v-114h-114zM543 715v114h114v-114 h-114zM543 1257v115h114v-115h-114zM657 967zM657 987zM678 444v115h115v-115h-115zM678 580v114h115v-114h-115zM678 715v114h115v-114h-115zM678 852v115h115v-115h-115zM678 987v115h115v-115h-115zM678 1122v115h115v-115h-115zM678 1257v115h115v-115h-115zM813 444 v115h115v-115h-115zM813 715v114h115v-114h-115zM813 852v115h115v-115h-115zM813 987v115h115v-115h-115zM813 1122v115h115v-115h-115z" />
<glyph unicode="R" d="M0 444v115h115v-115h-115zM0 580v114h115v-114h-115zM0 715v114h115v-114h-115zM0 852v115h115v-115h-115zM0 987v115h115v-115h-115zM0 1122v115h115v-115h-115zM0 1257v115h115v-115h-115zM135 444v115h115v-115h-115zM135 580v114h115v-114h-115zM135 715v114h115 v-114h-115zM135 852v115h115v-115h-115zM135 987v115h115v-115h-115zM135 1122v115h115v-115h-115zM135 1257v115h115v-115h-115zM270 852v115h115v-115h-115zM270 1257v115h115v-115h-115zM406 715v114h114v-114h-114zM406 852v115h114v-115h-114zM406 1257v115h114v-115 h-114zM543 580v114h114v-114h-114zM543 715v114h114v-114h-114zM543 852v115h114v-115h-114zM543 1257v115h114v-115h-114zM678 444v115h115v-115h-115zM678 580v114h115v-114h-115zM678 852v115h115v-115h-115zM678 987v115h115v-115h-115zM678 1122v115h115v-115h-115z M678 1257v115h115v-115h-115zM813 444v115h115v-115h-115zM813 987v115h115v-115h-115zM813 1122v115h115v-115h-115z" />
<glyph unicode="S" d="M0 580v114h115v-114h-115zM0 987v115h115v-115h-115zM0 1122v115h115v-115h-115zM135 444v115h115v-115h-115zM135 580v114h115v-114h-115zM135 852v115h115v-115h-115zM135 987v115h115v-115h-115zM135 1122v115h115v-115h-115zM135 1257v115h115v-115h-115zM270 444 v115h115v-115h-115zM270 852v115h115v-115h-115zM270 1257v115h115v-115h-115zM406 444v115h114v-115h-114zM406 852v115h114v-115h-114zM406 1257v115h114v-115h-114zM543 444v115h114v-115h-114zM543 852v115h114v-115h-114zM543 1257v115h114v-115h-114zM678 444v115h115 v-115h-115zM678 580v114h115v-114h-115zM678 715v114h115v-114h-115zM678 852v115h115v-115h-115zM678 1122v115h115v-115h-115zM678 1257v115h115v-115h-115zM813 580v114h115v-114h-115zM813 715v114h115v-114h-115zM813 1122v115h115v-115h-115z" />
<glyph unicode="T" d="M0 1257v115h115v-115h-115zM135 1257v115h115v-115h-115zM270 444v115h115v-115h-115zM270 580v114h115v-114h-115zM270 715v114h115v-114h-115zM270 852v115h115v-115h-115zM270 987v115h115v-115h-115zM270 1122v115h115v-115h-115zM270 1257v115h115v-115h-115z M406 444v115h114v-115h-114zM406 580v114h114v-114h-114zM406 715v114h114v-114h-114zM406 852v115h114v-115h-114zM406 987v115h114v-115h-114zM406 1122v115h114v-115h-114zM406 1257v115h114v-115h-114zM543 1257v115h114v-115h-114zM678 1257v115h115v-115h-115z" />
<glyph unicode="U" d="M0 580v114h115v-114h-115zM0 715v114h115v-114h-115zM0 852v115h115v-115h-115zM0 987v115h115v-115h-115zM0 1122v115h115v-115h-115zM0 1257v115h115v-115h-115zM135 444v115h115v-115h-115zM135 580v114h115v-114h-115zM135 715v114h115v-114h-115zM135 852v115h115 v-115h-115zM135 987v115h115v-115h-115zM135 1122v115h115v-115h-115zM135 1257v115h115v-115h-115zM270 444v115h115v-115h-115zM406 444v115h114v-115h-114zM543 444v115h114v-115h-114zM678 444v115h115v-115h-115zM678 580v114h115v-114h-115zM678 715v114h115v-114 h-115zM678 852v115h115v-115h-115zM678 987v115h115v-115h-115zM678 1122v115h115v-115h-115zM678 1257v115h115v-115h-115zM813 580v114h115v-114h-115zM813 715v114h115v-114h-115zM813 852v115h115v-115h-115zM813 987v115h115v-115h-115zM813 1122v115h115v-115h-115z M813 1257v115h115v-115h-115z" />
<glyph unicode="V" d="M0 715v114h115v-114h-115zM0 852v115h115v-115h-115zM0 987v115h115v-115h-115zM0 1122v115h115v-115h-115zM0 1257v115h115v-115h-115zM135 580v114h115v-114h-115zM135 715v114h115v-114h-115zM135 852v115h115v-115h-115zM135 987v115h115v-115h-115zM135 1122v115 h115v-115h-115zM135 1257v115h115v-115h-115zM270 444v115h115v-115h-115zM270 580v114h115v-114h-115zM406 444v115h114v-115h-114zM543 444v115h114v-115h-114zM543 580v114h114v-114h-114zM678 580v114h115v-114h-115zM678 715v114h115v-114h-115zM678 852v115h115v-115 h-115zM678 987v115h115v-115h-115zM678 1122v115h115v-115h-115zM678 1257v115h115v-115h-115zM813 715v114h115v-114h-115zM813 852v115h115v-115h-115zM813 987v115h115v-115h-115zM813 1122v115h115v-115h-115zM813 1257v115h115v-115h-115z" />
<glyph unicode="W" d="M0 580v114h115v-114h-115zM0 715v114h115v-114h-115zM0 852v115h115v-115h-115zM0 987v115h115v-115h-115zM0 1122v115h115v-115h-115zM0 1257v115h115v-115h-115zM135 444v115h115v-115h-115zM135 580v114h115v-114h-115zM135 715v114h115v-114h-115zM135 852v115h115 v-115h-115zM135 987v115h115v-115h-115zM135 1122v115h115v-115h-115zM135 1257v115h115v-115h-115zM270 444v115h115v-115h-115zM270 580v114h115v-114h-115zM406 580v114h114v-114h-114zM406 715v114h114v-114h-114zM543 444v115h114v-115h-114zM543 580v114h114v-114 h-114zM678 444v115h115v-115h-115zM678 580v114h115v-114h-115zM678 715v114h115v-114h-115zM678 852v115h115v-115h-115zM678 987v115h115v-115h-115zM678 1122v115h115v-115h-115zM678 1257v115h115v-115h-115zM813 580v114h115v-114h-115zM813 715v114h115v-114h-115z M813 852v115h115v-115h-115zM813 987v115h115v-115h-115zM813 1122v115h115v-115h-115zM813 1257v115h115v-115h-115z" />
<glyph unicode="X" d="M0 444v115h115v-115h-115zM0 580v114h115v-114h-115zM0 1257v115h115v-115h-115zM135 580v114h115v-114h-115zM135 715v114h115v-114h-115zM135 1122v115h115v-115h-115zM135 1257v115h115v-115h-115zM270 715v114h115v-114h-115zM270 852v115h115v-115h-115zM270 987 v115h115v-115h-115zM270 1122v115h115v-115h-115zM406 852v115h114v-115h-114zM406 987v115h114v-115h-114zM543 715v114h114v-114h-114zM543 852v115h114v-115h-114zM543 987v115h114v-115h-114zM543 1122v115h114v-115h-114zM678 580v114h115v-114h-115zM678 715v114h115 v-114h-115zM678 1122v115h115v-115h-115zM678 1257v115h115v-115h-115zM793 1257zM813 444v115h115v-115h-115zM813 580v114h115v-114h-115zM813 1257v115h115v-115h-115z" />
<glyph unicode="Y" d="M0 987v115h115v-115h-115zM0 1122v115h115v-115h-115zM0 1257v115h115v-115h-115zM135 852v115h115v-115h-115zM135 987v115h115v-115h-115zM135 1122v115h115v-115h-115zM135 1257v115h115v-115h-115zM270 444v115h115v-115h-115zM270 580v114h115v-114h-115zM270 715 v114h115v-114h-115zM270 852v115h115v-115h-115zM406 444v115h114v-115h-114zM406 580v114h114v-114h-114zM406 715v114h114v-114h-114zM406 852v115h114v-115h-114zM543 852v115h114v-115h-114zM543 987v115h114v-115h-114zM543 1122v115h114v-115h-114zM543 1257v115h114 v-115h-114zM678 987v115h115v-115h-115zM678 1122v115h115v-115h-115zM678 1257v115h115v-115h-115z" />
<glyph unicode="Z" d="M0 444v115h115v-115h-115zM0 580v114h115v-114h-115zM0 1257v115h115v-115h-115zM135 444v115h115v-115h-115zM135 580v114h115v-114h-115zM135 715v114h115v-114h-115zM135 1257v115h115v-115h-115zM270 444v115h115v-115h-115zM270 715v114h115v-114h-115zM270 852v115 h115v-115h-115zM270 1257v115h115v-115h-115zM406 444v115h114v-115h-114zM406 852v115h114v-115h-114zM406 987v115h114v-115h-114zM406 1257v115h114v-115h-114zM543 444v115h114v-115h-114zM543 987v115h114v-115h-114zM543 1122v115h114v-115h-114zM543 1257v115h114 v-115h-114zM678 444v115h115v-115h-115zM678 1122v115h115v-115h-115zM678 1257v115h115v-115h-115zM813 444v115h115v-115h-115zM813 1257v115h115v-115h-115z" />
<glyph unicode="[" horiz-adv-x="622" d="M0 444v115h115v-115h-115zM0 580v114h115v-114h-115zM0 715v114h115v-114h-115zM0 852v115h115v-115h-115zM0 987v115h115v-115h-115zM0 1122v115h115v-115h-115zM0 1257v115h115v-115h-115zM135 444v115h115v-115h-115zM135 580v114h115v-114h-115zM135 715v114h115 v-114h-115zM135 852v115h115v-115h-115zM135 987v115h115v-115h-115zM135 1122v115h115v-115h-115zM135 1257v115h115v-115h-115zM270 444v115h115v-115h-115zM270 1257v115h115v-115h-115z" />
<glyph unicode="\" d="M0 1257v115h115v-115h-115zM135 1122v115h115v-115h-115zM135 1257v115h115v-115h-115zM270 987v115h115v-115h-115zM270 1122v115h115v-115h-115zM406 852v115h114v-115h-114zM406 987v115h114v-115h-114zM543 715v114h114v-114h-114zM543 852v115h114v-115h-114z M678 580v114h115v-114h-115zM678 715v114h115v-114h-115zM813 444v115h115v-115h-115zM813 580v114h115v-114h-115z" />
<glyph unicode="]" horiz-adv-x="655" d="M0 444v115h115v-115h-115zM0 1257v115h115v-115h-115zM115 1237zM135 444v115h115v-115h-115zM135 580v114h115v-114h-115zM135 715v114h115v-114h-115zM135 852v115h115v-115h-115zM135 987v115h115v-115h-115zM135 1122v115h115v-115h-115zM135 1257v115h115v-115h-115 zM270 444v115h115v-115h-115zM270 580v114h115v-114h-115zM270 715v114h115v-114h-115zM270 852v115h115v-115h-115zM270 987v115h115v-115h-115zM270 1122v115h115v-115h-115zM270 1257v115h115v-115h-115z" />
<glyph unicode="a" d="M0 580v114h115v-114h-115zM135 444v115h115v-115h-115zM135 580v114h115v-114h-115zM135 715v114h115v-114h-115zM135 987v115h115v-115h-115zM270 444v115h115v-115h-115zM270 715v114h115v-114h-115zM270 987v115h115v-115h-115zM406 444v115h114v-115h-114zM406 715 v114h114v-114h-114zM406 987v115h114v-115h-114zM543 444v115h114v-115h-114zM543 715v114h114v-114h-114zM543 987v115h114v-115h-114zM678 444v115h115v-115h-115zM678 580v114h115v-114h-115zM678 715v114h115v-114h-115zM678 852v115h115v-115h-115zM678 987v115h115 v-115h-115zM813 444v115h115v-115h-115zM813 580v114h115v-114h-115zM813 715v114h115v-114h-115zM813 852v115h115v-115h-115z" />
<glyph unicode="b" d="M0 444v115h115v-115h-115zM0 580v114h115v-114h-115zM0 715v114h115v-114h-115zM0 852v115h115v-115h-115zM0 987v115h115v-115h-115zM0 1122v115h115v-115h-115zM0 1257v115h115v-115h-115zM135 444v115h115v-115h-115zM135 580v114h115v-114h-115zM135 715v114h115 v-114h-115zM135 852v115h115v-115h-115zM135 987v115h115v-115h-115zM135 1122v115h115v-115h-115zM135 1257v115h115v-115h-115zM270 444v115h115v-115h-115zM270 987v115h115v-115h-115zM406 444v115h114v-115h-114zM406 987v115h114v-115h-114zM543 444v115h114v-115 h-114zM543 987v115h114v-115h-114zM678 444v115h115v-115h-115zM678 580v114h115v-114h-115zM678 715v114h115v-114h-115zM678 852v115h115v-115h-115zM678 987v115h115v-115h-115zM813 580v114h115v-114h-115zM813 715v114h115v-114h-115zM813 852v115h115v-115h-115z" />
<glyph unicode="c" d="M0 580v114h115v-114h-115zM0 715v114h115v-114h-115zM0 852v115h115v-115h-115zM135 444v115h115v-115h-115zM135 580v114h115v-114h-115zM135 715v114h115v-114h-115zM135 852v115h115v-115h-115zM135 987v115h115v-115h-115zM270 444v115h115v-115h-115zM270 987v115 h115v-115h-115zM406 444v115h114v-115h-114zM406 987v115h114v-115h-114zM543 444v115h114v-115h-114zM543 987v115h114v-115h-114zM678 444v115h115v-115h-115zM678 580v114h115v-114h-115zM678 852v115h115v-115h-115zM678 987v115h115v-115h-115zM813 580v114h115v-114 h-115zM813 852v115h115v-115h-115z" />
<glyph unicode="d" d="M0 580v114h115v-114h-115zM0 715v114h115v-114h-115zM0 852v115h115v-115h-115zM135 444v115h115v-115h-115zM135 580v114h115v-114h-115zM135 715v114h115v-114h-115zM135 852v115h115v-115h-115zM135 987v115h115v-115h-115zM270 444v115h115v-115h-115zM270 987v115 h115v-115h-115zM406 444v115h114v-115h-114zM406 987v115h114v-115h-114zM543 444v115h114v-115h-114zM543 987v115h114v-115h-114zM678 444v115h115v-115h-115zM678 580v114h115v-114h-115zM678 715v114h115v-114h-115zM678 852v115h115v-115h-115zM678 987v115h115v-115 h-115zM678 1122v115h115v-115h-115zM678 1257v115h115v-115h-115zM813 444v115h115v-115h-115zM813 580v114h115v-114h-115zM813 715v114h115v-114h-115zM813 852v115h115v-115h-115zM813 987v115h115v-115h-115zM813 1122v115h115v-115h-115zM813 1257v115h115v-115h-115z " />
<glyph unicode="e" d="M0 580v114h115v-114h-115zM0 715v114h115v-114h-115zM0 852v115h115v-115h-115zM135 444v115h115v-115h-115zM135 580v114h115v-114h-115zM135 715v114h115v-114h-115zM135 852v115h115v-115h-115zM135 987v115h115v-115h-115zM270 444v115h115v-115h-115zM270 715v114 h115v-114h-115zM270 987v115h115v-115h-115zM406 444v115h114v-115h-114zM406 715v114h114v-114h-114zM406 987v115h114v-115h-114zM543 444v115h114v-115h-114zM543 715v114h114v-114h-114zM543 987v115h114v-115h-114zM678 444v115h115v-115h-115zM678 715v114h115v-114 h-115zM678 852v115h115v-115h-115zM678 987v115h115v-115h-115zM813 715v114h115v-114h-115zM813 852v115h115v-115h-115z" />
<glyph unicode="f" horiz-adv-x="802" d="M0 987v115h115v-115h-115zM135 444v115h115v-115h-115zM135 580v114h115v-114h-115zM135 715v114h115v-114h-115zM135 852v115h115v-115h-115zM135 987v115h115v-115h-115zM135 1122v115h115v-115h-115zM270 444v115h115v-115h-115zM270 580v114h115v-114h-115zM270 715 v114h115v-114h-115zM270 852v115h115v-115h-115zM270 987v115h115v-115h-115zM270 1122v115h115v-115h-115zM270 1257v115h115v-115h-115zM406 987v115h114v-115h-114zM406 1257v115h114v-115h-114zM543 1257v115h114v-115h-114z" />
<glyph unicode="g" d="M0 580v114h115v-114h-115zM0 715v114h115v-114h-115zM0 852v115h115v-115h-115zM135 172v115h115v-115h-115zM135 444v115h115v-115h-115zM135 580v114h115v-114h-115zM135 715v114h115v-114h-115zM135 852v115h115v-115h-115zM135 987v115h115v-115h-115zM270 172v115 h115v-115h-115zM270 444v115h115v-115h-115zM270 987v115h115v-115h-115zM406 172v115h114v-115h-114zM406 444v115h114v-115h-114zM406 987v115h114v-115h-114zM543 172v115h114v-115h-114zM543 444v115h114v-115h-114zM543 987v115h114v-115h-114zM678 172v115h115v-115 h-115zM678 309v115h115v-115h-115zM678 444v115h115v-115h-115zM678 580v114h115v-114h-115zM678 715v114h115v-114h-115zM678 852v115h115v-115h-115zM678 987v115h115v-115h-115zM813 309v115h115v-115h-115zM813 444v115h115v-115h-115zM813 580v114h115v-114h-115z M813 715v114h115v-114h-115zM813 852v115h115v-115h-115z" />
<glyph unicode="h" d="M0 444v115h115v-115h-115zM0 580v114h115v-114h-115zM0 715v114h115v-114h-115zM0 852v115h115v-115h-115zM0 987v115h115v-115h-115zM0 1122v115h115v-115h-115zM0 1257v115h115v-115h-115zM135 444v115h115v-115h-115zM135 580v114h115v-114h-115zM135 715v114h115 v-114h-115zM135 852v115h115v-115h-115zM135 987v115h115v-115h-115zM135 1122v115h115v-115h-115zM135 1257v115h115v-115h-115zM270 987v115h115v-115h-115zM406 987v115h114v-115h-114zM543 987v115h114v-115h-114zM678 444v115h115v-115h-115zM678 580v114h115v-114 h-115zM678 715v114h115v-114h-115zM678 852v115h115v-115h-115zM678 987v115h115v-115h-115zM813 444v115h115v-115h-115zM813 580v114h115v-114h-115zM813 715v114h115v-114h-115zM813 852v115h115v-115h-115z" />
<glyph unicode="i" horiz-adv-x="385" d="M0 444v115h115v-115h-115zM0 580v114h115v-114h-115zM0 715v114h115v-114h-115zM0 852v115h115v-115h-115zM0 987v115h115v-115h-115zM0 1257v115h115v-115h-115zM135 444v115h115v-115h-115zM135 580v114h115v-114h-115zM135 715v114h115v-114h-115zM135 852v115h115 v-115h-115zM135 987v115h115v-115h-115zM135 1257v115h115v-115h-115z" />
<glyph unicode="j" horiz-adv-x="659" d="M0 172v115h115v-115h-115zM135 172v115h115v-115h-115zM135 987v115h115v-115h-115zM270 172v115h115v-115h-115zM270 309v115h115v-115h-115zM270 444v115h115v-115h-115zM270 580v114h115v-114h-115zM270 715v114h115v-114h-115zM270 852v115h115v-115h-115zM270 987 v115h115v-115h-115zM270 1257v115h115v-115h-115zM406 309v115h114v-115h-114zM406 444v115h114v-115h-114zM406 580v114h114v-114h-114zM406 715v114h114v-114h-114zM406 852v115h114v-115h-114zM406 987v115h114v-115h-114zM406 1257v115h114v-115h-114z" />
<glyph unicode="k" d="M0 444v115h115v-115h-115zM0 580v114h115v-114h-115zM0 715v114h115v-114h-115zM0 852v115h115v-115h-115zM0 987v115h115v-115h-115zM0 1122v115h115v-115h-115zM0 1257v115h115v-115h-115zM135 444v115h115v-115h-115zM135 580v114h115v-114h-115zM135 715v114h115 v-114h-115zM135 852v115h115v-115h-115zM135 987v115h115v-115h-115zM135 1122v115h115v-115h-115zM135 1257v115h115v-115h-115zM270 715v114h115v-114h-115zM406 580v114h114v-114h-114zM406 715v114h114v-114h-114zM406 852v115h114v-115h-114zM543 444v115h114v-115 h-114zM543 580v114h114v-114h-114zM543 852v115h114v-115h-114zM543 987v115h114v-115h-114zM678 444v115h115v-115h-115zM678 967zM678 987v115h115v-115h-115z" />
<glyph unicode="l" horiz-adv-x="385" d="M0 444v115h115v-115h-115zM0 580v114h115v-114h-115zM0 715v114h115v-114h-115zM0 852v115h115v-115h-115zM0 987v115h115v-115h-115zM0 1122v115h115v-115h-115zM0 1257v115h115v-115h-115zM135 444v115h115v-115h-115zM135 580v114h115v-114h-115zM135 715v114h115 v-114h-115zM135 852v115h115v-115h-115zM135 987v115h115v-115h-115zM135 1122v115h115v-115h-115zM135 1257v115h115v-115h-115z" />
<glyph unicode="m" d="M0 444v115h115v-115h-115zM0 580v114h115v-114h-115zM0 715v114h115v-114h-115zM0 852v115h115v-115h-115zM0 987v115h115v-115h-115zM135 444v115h115v-115h-115zM135 580v114h115v-114h-115zM135 715v114h115v-114h-115zM135 852v115h115v-115h-115zM135 987v115h115 v-115h-115zM270 987v115h115v-115h-115zM406 444v115h114v-115h-114zM406 580v114h114v-114h-114zM406 715v114h114v-114h-114zM406 852v115h114v-115h-114zM543 987v115h114v-115h-114zM678 444v115h115v-115h-115zM678 580v114h115v-114h-115zM678 715v114h115v-114h-115z M678 852v115h115v-115h-115zM678 987v115h115v-115h-115zM813 444v115h115v-115h-115zM813 580v114h115v-114h-115zM813 715v114h115v-114h-115zM813 852v115h115v-115h-115z" />
<glyph unicode="n" horiz-adv-x="925" d="M0 444v115h115v-115h-115zM0 580v114h115v-114h-115zM0 715v114h115v-114h-115zM0 852v115h115v-115h-115zM0 987v115h115v-115h-115zM135 444v115h115v-115h-115zM135 580v114h115v-114h-115zM135 715v114h115v-114h-115zM135 852v115h115v-115h-115zM135 987v115h115 v-115h-115zM270 987v115h115v-115h-115zM406 987v115h114v-115h-114zM543 444v115h114v-115h-114zM543 580v114h114v-114h-114zM543 715v114h114v-114h-114zM543 852v115h114v-115h-114zM543 987v115h114v-115h-114zM678 444v115h115v-115h-115zM678 580v114h115v-114h-115z M678 715v114h115v-114h-115zM678 852v115h115v-115h-115z" />
<glyph unicode="o" d="M0 580v114h115v-114h-115zM0 715v114h115v-114h-115zM0 852v115h115v-115h-115zM135 444v115h115v-115h-115zM135 580v114h115v-114h-115zM135 715v114h115v-114h-115zM135 852v115h115v-115h-115zM135 987v115h115v-115h-115zM270 444v115h115v-115h-115zM270 987v115 h115v-115h-115zM406 444v115h114v-115h-114zM406 987v115h114v-115h-114zM543 444v115h114v-115h-114zM543 987v115h114v-115h-114zM678 444v115h115v-115h-115zM678 580v114h115v-114h-115zM678 715v114h115v-114h-115zM678 852v115h115v-115h-115zM678 987v115h115v-115 h-115zM813 580v114h115v-114h-115zM813 715v114h115v-114h-115zM813 852v115h115v-115h-115z" />
<glyph unicode="p" d="M0 172v115h115v-115h-115zM0 309v115h115v-115h-115zM0 444v115h115v-115h-115zM0 580v114h115v-114h-115zM0 715v114h115v-114h-115zM0 852v115h115v-115h-115zM0 987v115h115v-115h-115zM135 172v115h115v-115h-115zM135 309v115h115v-115h-115zM135 444v115h115v-115 h-115zM135 580v114h115v-114h-115zM135 715v114h115v-114h-115zM135 852v115h115v-115h-115zM135 987v115h115v-115h-115zM270 444v115h115v-115h-115zM270 987v115h115v-115h-115zM406 444v115h114v-115h-114zM406 987v115h114v-115h-114zM543 444v115h114v-115h-114z M543 987v115h114v-115h-114zM678 444v115h115v-115h-115zM678 580v114h115v-114h-115zM678 715v114h115v-114h-115zM678 852v115h115v-115h-115zM678 987v115h115v-115h-115zM813 580v114h115v-114h-115zM813 715v114h115v-114h-115zM813 852v115h115v-115h-115z" />
<glyph unicode="q" d="M0 580v114h115v-114h-115zM0 715v114h115v-114h-115zM0 852v115h115v-115h-115zM135 444v115h115v-115h-115zM135 580v114h115v-114h-115zM135 715v114h115v-114h-115zM135 852v115h115v-115h-115zM135 987v115h115v-115h-115zM270 444v115h115v-115h-115zM270 987v115 h115v-115h-115zM406 444v115h114v-115h-114zM406 987v115h114v-115h-114zM543 444v115h114v-115h-114zM543 987v115h114v-115h-114zM678 172v115h115v-115h-115zM678 309v115h115v-115h-115zM678 444v115h115v-115h-115zM678 580v114h115v-114h-115zM678 715v114h115v-114 h-115zM678 852v115h115v-115h-115zM678 987v115h115v-115h-115zM813 172v115h115v-115h-115zM813 309v115h115v-115h-115zM813 444v115h115v-115h-115zM813 580v114h115v-114h-115zM813 715v114h115v-114h-115zM813 852v115h115v-115h-115zM813 987v115h115v-115h-115z" />
<glyph unicode="r" horiz-adv-x="794" d="M0 444v115h115v-115h-115zM0 580v114h115v-114h-115zM0 715v114h115v-114h-115zM0 852v115h115v-115h-115zM0 987v115h115v-115h-115zM135 444v115h115v-115h-115zM135 580v114h115v-114h-115zM135 715v114h115v-114h-115zM135 852v115h115v-115h-115zM135 987v115h115 v-115h-115zM270 852v115h115v-115h-115zM406 987v115h114v-115h-114zM543 987v115h114v-115h-114z" />
<glyph unicode="s" d="M0 852v115h115v-115h-115zM135 444v115h115v-115h-115zM135 715v114h115v-114h-115zM135 852v115h115v-115h-115zM135 987v115h115v-115h-115zM270 444v115h115v-115h-115zM270 715v114h115v-114h-115zM270 987v115h115v-115h-115zM406 444v115h114v-115h-114zM406 715 v114h114v-114h-114zM406 987v115h114v-115h-114zM543 444v115h114v-115h-114zM543 715v114h114v-114h-114zM543 987v115h114v-115h-114zM678 444v115h115v-115h-115zM678 580v114h115v-114h-115zM678 715v114h115v-114h-115zM678 987v115h115v-115h-115zM813 580v114h115 v-114h-115z" />
<glyph unicode="t" horiz-adv-x="794" d="M0 987v115h115v-115h-115zM135 580v114h115v-114h-115zM135 715v114h115v-114h-115zM135 852v115h115v-115h-115zM135 987v115h115v-115h-115zM135 1122v115h115v-115h-115zM135 1257v115h115v-115h-115zM270 444v115h115v-115h-115zM270 580v114h115v-114h-115zM270 715 v114h115v-114h-115zM270 852v115h115v-115h-115zM270 987v115h115v-115h-115zM270 1122v115h115v-115h-115zM270 1257v115h115v-115h-115zM406 444v115h114v-115h-114zM406 987v115h114v-115h-114zM543 444v115h114v-115h-114z" />
<glyph unicode="u" d="M0 580v114h115v-114h-115zM0 715v114h115v-114h-115zM0 852v115h115v-115h-115zM0 987v115h115v-115h-115zM135 444v115h115v-115h-115zM135 580v114h115v-114h-115zM135 715v114h115v-114h-115zM135 852v115h115v-115h-115zM135 987v115h115v-115h-115zM270 444v115h115 v-115h-115zM406 444v115h114v-115h-114zM543 444v115h114v-115h-114zM678 444v115h115v-115h-115zM678 580v114h115v-114h-115zM678 715v114h115v-114h-115zM678 852v115h115v-115h-115zM678 987v115h115v-115h-115zM813 444v115h115v-115h-115zM813 580v114h115v-114h-115z M813 715v114h115v-114h-115zM813 852v115h115v-115h-115zM813 987v115h115v-115h-115z" />
<glyph unicode="v" d="M0 715v114h115v-114h-115zM0 852v115h115v-115h-115zM0 987v115h115v-115h-115zM135 580v114h115v-114h-115zM135 715v114h115v-114h-115zM135 852v115h115v-115h-115zM135 987v115h115v-115h-115zM270 444v115h115v-115h-115zM270 580v114h115v-114h-115zM406 444v115 h114v-115h-114zM543 444v115h114v-115h-114zM543 580v114h114v-114h-114zM678 580v114h115v-114h-115zM678 715v114h115v-114h-115zM678 852v115h115v-115h-115zM678 987v115h115v-115h-115zM813 715v114h115v-114h-115zM813 852v115h115v-115h-115zM813 987v115h115v-115 h-115z" />
<glyph unicode="w" d="M0 580v114h115v-114h-115zM0 715v114h115v-114h-115zM0 852v115h115v-115h-115zM0 987v115h115v-115h-115zM135 444v115h115v-115h-115zM135 580v114h115v-114h-115zM135 715v114h115v-114h-115zM135 852v115h115v-115h-115zM135 987v115h115v-115h-115zM270 444v115h115 v-115h-115zM406 580v114h114v-114h-114zM543 444v115h114v-115h-114zM678 444v115h115v-115h-115zM678 580v114h115v-114h-115zM678 715v114h115v-114h-115zM678 852v115h115v-115h-115zM678 987v115h115v-115h-115zM813 580v114h115v-114h-115zM813 715v114h115v-114h-115z M813 852v115h115v-115h-115zM813 987v115h115v-115h-115z" />
<glyph unicode="x" d="M0 444v115h115v-115h-115zM0 987v115h115v-115h-115zM135 444v115h115v-115h-115zM135 580v114h115v-114h-115zM135 852v115h115v-115h-115zM135 987v115h115v-115h-115zM270 580v114h115v-114h-115zM270 715v114h115v-114h-115zM270 852v115h115v-115h-115zM406 715v114 h114v-114h-114zM543 580v114h114v-114h-114zM543 715v114h114v-114h-114zM543 852v115h114v-115h-114zM678 444v115h115v-115h-115zM678 580v114h115v-114h-115zM678 852v115h115v-115h-115zM678 987v115h115v-115h-115zM813 444v115h115v-115h-115zM813 987v115h115v-115 h-115z" />
<glyph unicode="y" d="M0 580v114h115v-114h-115zM0 715v114h115v-114h-115zM0 852v115h115v-115h-115zM0 987v115h115v-115h-115zM135 172v115h115v-115h-115zM135 444v115h115v-115h-115zM135 580v114h115v-114h-115zM135 715v114h115v-114h-115zM135 852v115h115v-115h-115zM135 987v115h115 v-115h-115zM270 172v115h115v-115h-115zM270 444v115h115v-115h-115zM406 172v115h114v-115h-114zM406 444v115h114v-115h-114zM543 172v115h114v-115h-114zM543 444v115h114v-115h-114zM678 172v115h115v-115h-115zM678 309v115h115v-115h-115zM678 444v115h115v-115h-115z M678 580v114h115v-114h-115zM678 715v114h115v-114h-115zM678 852v115h115v-115h-115zM678 987v115h115v-115h-115zM813 309v115h115v-115h-115zM813 444v115h115v-115h-115zM813 580v114h115v-114h-115zM813 715v114h115v-114h-115zM813 852v115h115v-115h-115zM813 987 v115h115v-115h-115z" />
<glyph unicode="z" d="M0 444v115h115v-115h-115zM0 987v115h115v-115h-115zM135 444v115h115v-115h-115zM135 580v114h115v-114h-115zM135 987v115h115v-115h-115zM270 444v115h115v-115h-115zM270 580v114h115v-114h-115zM270 715v114h115v-114h-115zM270 987v115h115v-115h-115zM406 444v115 h114v-115h-114zM406 715v114h114v-114h-114zM406 987v115h114v-115h-114zM543 444v115h114v-115h-114zM543 715v114h114v-114h-114zM543 852v115h114v-115h-114zM543 987v115h114v-115h-114zM678 444v115h115v-115h-115zM678 852v115h115v-115h-115zM678 987v115h115v-115 h-115zM813 444v115h115v-115h-115zM813 987v115h115v-115h-115z" />
<glyph unicode="&#xa0;" />
<glyph unicode="&#xad;" horiz-adv-x="813" d="M0 852v115h115v-115h-115zM135 852v115h115v-115h-115zM270 852v115h115v-115h-115zM406 852v115h114v-115h-114zM543 852v115h114v-115h-114z" />
<glyph unicode="&#x2000;" horiz-adv-x="686" />
<glyph unicode="&#x2001;" horiz-adv-x="1372" />
<glyph unicode="&#x2002;" horiz-adv-x="686" />
<glyph unicode="&#x2003;" horiz-adv-x="1372" />
<glyph unicode="&#x2004;" horiz-adv-x="457" />
<glyph unicode="&#x2005;" horiz-adv-x="343" />
<glyph unicode="&#x2006;" horiz-adv-x="228" />
<glyph unicode="&#x2007;" horiz-adv-x="228" />
<glyph unicode="&#x2008;" horiz-adv-x="171" />
<glyph unicode="&#x2009;" horiz-adv-x="274" />
<glyph unicode="&#x200a;" horiz-adv-x="76" />
<glyph unicode="&#x2010;" horiz-adv-x="813" d="M0 852v115h115v-115h-115zM135 852v115h115v-115h-115zM270 852v115h115v-115h-115zM406 852v115h114v-115h-114zM543 852v115h114v-115h-114z" />
<glyph unicode="&#x2011;" horiz-adv-x="813" d="M0 852v115h115v-115h-115zM135 852v115h115v-115h-115zM270 852v115h115v-115h-115zM406 852v115h114v-115h-114zM543 852v115h114v-115h-114z" />
<glyph unicode="&#x2012;" horiz-adv-x="813" d="M0 852v115h115v-115h-115zM135 852v115h115v-115h-115zM270 852v115h115v-115h-115zM406 852v115h114v-115h-114zM543 852v115h114v-115h-114z" />
<glyph unicode="&#x2013;" horiz-adv-x="1180" d="M0 852v115h179v-115h-179zM210 852v115h180v-115h-180zM421 852v115h179v-115h-179zM633 852v115h177v-115h-177zM846 852v115h178v-115h-178z" />
<glyph unicode="&#x2014;" horiz-adv-x="2204" d="M0 852v115h358v-115h-358zM421 852v115h358v-115h-358zM842 852v115h358v-115h-358zM1266 852v115h355v-115h-355zM1693 852v115h355v-115h-355z" />
<glyph unicode="&#x202f;" horiz-adv-x="274" />
<glyph unicode="&#x205f;" horiz-adv-x="343" />
<glyph unicode="&#x25fc;" horiz-adv-x="1105" d="M0 0v1106h1106v-1106h-1106z" />
</font>
</defs>
</svg>
